<svg xmlns="http://www.w3.org/2000/svg" width="24" height="24" viewBox="0 0 24 24">
  <path
    fill="rgb(64, 64, 64)"
    fill-rule="evenodd"
    clip-rule="evenodd"
    d="M 1 10.516 C 1 5.312 6.378 2 11.756 2 C 17.133 2 23 5.312 23 10.516 s -4.4 8.99 -11.244 8.99 H 8.117 a 1 1 0 0 0 -0.508 0.138 l -3.89 2.3 a 0.396 0.396 0 0 1 -0.595 -0.4 c 0.149 -0.968 0.412 -2.597 0.673 -3.81 a 1.09 1.09 0 0 0 -0.313 -1.008 C 1.742 15.033 1 13.14 1 10.516 m 7 1.916 c 0.828 0 1.5 -0.667 1.5 -1.49 s -0.672 -1.49 -1.5 -1.49 s -1.5 0.667 -1.5 1.49 s 0.672 1.49 1.5 1.49 m 5.5 -1.49 c 0 0.823 -0.672 1.49 -1.5 1.49 s -1.5 -0.667 -1.5 -1.49 s 0.672 -1.49 1.5 -1.49 s 1.5 0.667 1.5 1.49 m 2.5 1.49 c 0.828 0 1.5 -0.667 1.5 -1.49 s -0.672 -1.49 -1.5 -1.49 s -1.5 0.667 -1.5 1.49 s 0.672 1.49 1.5 1.49"
  />
</svg>
